<?xml version="1.0" encoding="UTF-8"?>
<svg width="500" height="500" viewBox="0 0 500 500" fill="none" xmlns="http://www.w3.org/2000/svg">
<rect width="500" height="500"/>
<g clip-path="url(#clip0_1_4)">
<path d="M39.7828 151.203C45.4475 137.672 62.3729 141.995 72.8747 145.87C82.7212 149.511 92.4901 154.094 103.052 155.164C112.244 156.104 120.581 153.438 128.919 149.822C138.653 145.645 148.689 140.468 159.571 142.789C160.381 142.962 160.735 141.719 159.916 141.546C150.293 139.493 141.326 143.013 132.618 146.81C127.134 149.201 121.642 151.746 115.787 153.11C109.183 154.526 102.335 154.337 95.8183 152.557C80.8847 148.855 48.0428 128.18 38.5498 150.832C38.2222 151.6 39.481 151.936 39.7914 151.177L39.7828 151.203Z" fill="#E8E8E8"/>
<path d="M115.132 395.137C133.135 372.485 168.451 375.341 193.878 378.931C221.702 382.857 249.362 388.139 276.47 377.697C290.334 372.356 303.009 364.434 315.546 356.555C316.244 356.115 315.597 354.993 314.89 355.433C302.88 362.984 290.748 370.604 277.539 375.894C263.502 381.511 248.845 383.444 233.782 382.65C205.751 381.157 177.944 372.105 149.733 376.403C136.515 378.413 122.78 383.453 114.218 394.222C113.701 394.869 114.606 395.793 115.132 395.137V395.137Z" fill="#E8E8E8"/>
<path d="M291.55 388.63C302.94 380.372 316.21 374.685 330.41 374.185C344.206 373.71 357.536 377.801 370.357 382.409C382.85 386.905 395.197 392.082 408.234 394.835C420.899 397.566 434.016 397.392 446.604 394.327C459.192 391.262 470.924 385.385 480.919 377.136C481.566 376.61 480.643 375.695 480.005 376.221C458.579 393.748 430.367 399.314 403.638 392.427C379.091 386.085 355.716 371.717 329.66 372.916C315.503 373.572 302.242 379.259 290.86 387.509C290.197 387.992 290.86 389.114 291.516 388.63H291.55Z" fill="#E8E8E8"/>
<path d="M298.914 325.895C314.528 319.855 331.186 323.306 346.922 327C362.657 330.693 378.488 334.766 394.637 336.604C421.478 339.728 450.845 336.017 471.262 316.757C471.866 316.179 470.952 315.264 470.348 315.833C448.017 336.932 415.511 338.805 386.713 334.24C371.09 331.763 355.863 327.543 340.421 324.221C326.625 321.244 312.114 319.44 298.595 324.678C297.827 324.972 298.163 326.223 298.939 325.921L298.914 325.895Z" fill="#E8E8E8"/>
<path d="M197.008 200.235C220.409 186.928 248.095 191.39 273.211 196.187C298.327 200.985 323.116 204.687 347.913 196.248C360.11 192.055 371.416 185.617 381.247 177.263C381.885 176.728 380.971 175.814 380.333 176.349C367.882 186.904 353.074 194.304 337.162 197.922C320.004 201.771 302.759 200.235 285.653 197.18C256.389 192.002 224.013 183.373 196.362 199.087C196.213 199.173 196.104 199.314 196.06 199.48C196.015 199.646 196.039 199.823 196.124 199.971C196.21 200.12 196.351 200.229 196.517 200.273C196.683 200.318 196.86 200.295 197.008 200.209V200.235Z" fill="#E8E8E8"/>
<path d="M266.624 161.748C274.082 166.278 282.868 164.906 290.955 163.008C300.957 160.66 310.631 157.14 320.271 153.515C339.619 146.232 359.234 138.354 380.264 138.845C380.435 138.845 380.6 138.777 380.721 138.656C380.842 138.534 380.911 138.37 380.911 138.198C380.911 138.027 380.842 137.862 380.721 137.741C380.6 137.619 380.435 137.551 380.264 137.551C361.14 137.068 343.085 143.479 325.435 150.141C316.503 153.515 307.579 156.958 298.405 159.634C288.696 162.481 276.66 166.235 267.313 160.557C266.598 160.125 265.951 161.247 266.658 161.679L266.624 161.748Z" fill="#E8E8E8"/>
<path d="M177.815 53.4666C210.26 61.8026 239.36 40.9282 268.658 30.8318C302.138 19.2944 336.558 27.2938 368.676 39.349C369.46 39.6424 369.797 38.3911 369.021 38.0977C338.938 26.8106 305.958 18.4746 274.177 27.7425C242.732 36.881 212.519 61.0777 178.151 52.2412C178.069 52.2186 177.984 52.2123 177.899 52.2228C177.815 52.2333 177.733 52.2604 177.659 52.3024C177.509 52.3874 177.4 52.5284 177.354 52.6943C177.308 52.8602 177.33 53.0375 177.415 53.1872C177.5 53.3369 177.641 53.4467 177.807 53.4925L177.815 53.4666Z" fill="#E8E8E8"/>
<path d="M134.911 116.633C135.254 116.633 135.583 116.497 135.826 116.254C136.068 116.012 136.205 115.682 136.205 115.339C136.205 114.996 136.068 114.667 135.826 114.424C135.583 114.181 135.254 114.045 134.911 114.045C134.568 114.045 134.239 114.181 133.997 114.424C133.754 114.667 133.618 114.996 133.618 115.339C133.618 115.682 133.754 116.012 133.997 116.254C134.239 116.497 134.568 116.633 134.911 116.633V116.633Z" fill="#13629A"/>
<path d="M358.958 289.747C359.778 287.684 361.407 286.977 363.83 287.615C364.356 288.03 364.89 288.418 365.434 288.806C366.048 289.211 366.767 289.427 367.503 289.427C369.176 289.315 369.667 287.969 370.866 287.098C373.97 284.828 374.315 287.728 376.901 288.306C378.626 288.703 382.937 284.725 383.877 286.813C384.221 287.564 385.334 286.908 384.989 286.157C384.127 284.267 382.187 284.517 380.557 285.346C378.927 286.174 378.022 287.305 375.979 286.209C375.401 285.889 375.065 285.078 374.452 284.759C374.135 284.552 373.778 284.412 373.404 284.35C373.03 284.287 372.647 284.303 372.28 284.397C371.029 284.69 370.607 285.872 369.693 286.537C366.572 288.703 366.132 286.934 363.597 285.993C360.898 284.992 359.208 287.003 357.863 289.117C357.415 289.824 358.536 290.472 358.984 289.773L358.958 289.747Z" fill="#13629A"/>
<path d="M372.814 295.434C375.237 290.385 378.72 295.554 381.971 294.389C382.635 294.156 382.833 293.578 383.316 293.302C385.489 292.111 387.248 293.362 389.032 294.355C391.128 295.52 394.094 296.737 394.982 293.432C395.012 293.272 394.981 293.107 394.895 292.97C394.809 292.832 394.675 292.732 394.519 292.689C394.363 292.645 394.197 292.662 394.052 292.736C393.908 292.809 393.797 292.934 393.74 293.086C392.8 296.538 387.705 291.102 385.98 290.825C383.894 290.489 383.118 291.973 381.247 292.327C379.177 292.724 377.798 291.214 375.573 291.619C374.714 291.776 373.908 292.148 373.232 292.7C372.555 293.252 372.028 293.967 371.702 294.778C371.34 295.52 372.452 296.184 372.814 295.434V295.434Z" fill="#13629A"/>
<path d="M29.2724 175.451C29.9966 169.92 35.3079 175.555 37.4548 174.761C39.9811 173.837 39.1792 169.799 42.9557 171.896C44.0939 172.526 44.6802 173.768 46.1891 173.251C46.6202 173.104 46.8875 172.603 47.241 172.388C47.4226 172.07 47.5839 171.742 47.7238 171.404C50.207 169.531 51.9401 169.799 52.8971 172.181C53.3627 172.871 54.4836 172.181 54.018 171.533C52.2246 168.901 50.5088 167.564 47.5341 168.996C47.1461 169.186 47.1203 169.963 46.8099 170.144L43.8525 171.007C43.4633 170.592 43.0392 170.211 42.585 169.868C41.7228 169.609 41.5331 169.109 40.5243 169.324C39.3344 169.574 39.1965 170.524 38.5153 171.283C38.4635 171.678 38.2616 172.037 37.9515 172.286C37.6415 172.535 37.2474 172.655 36.8512 172.621C35.9948 173.397 35.2533 173.346 34.6267 172.465C33.8162 172.163 33.5058 171.602 32.635 171.507C30.0484 171.128 28.2808 173.156 27.979 175.468C27.8756 176.288 29.1689 176.288 29.2724 175.468V175.451Z" fill="#13629A"/>
<path d="M42.3693 181.25C43.4385 177.928 47.2409 182.406 48.9653 182.113C50.6897 181.82 50.638 180.137 51.8192 179.412C55.0698 177.419 55.6906 181.285 58.329 181.699C60.1569 181.984 61.8899 180.689 63.2436 179.688C63.9075 179.196 63.2436 178.074 62.5883 178.566C61.6634 179.078 60.6389 179.382 59.5852 179.46C58.5314 179.537 57.4734 179.386 56.4838 179.015C56.0096 178.748 55.7165 177.954 55.2595 177.617C54.8579 177.216 54.3356 176.958 53.7732 176.883C53.2107 176.808 52.6393 176.921 52.1469 177.203C50.5776 177.988 51.2329 178.67 48.9222 179.058C46.2062 179.524 42.5676 176.357 41.1622 180.87C40.9122 181.664 42.1538 182.009 42.4124 181.216L42.3693 181.25Z" fill="#13629A"/>
<path d="M145.335 468.409C148.534 464.724 153.207 471.947 157.036 471.144C158.32 470.877 158.553 470.281 159.484 469.548C161.95 467.546 163.287 467.917 165.977 469.375C167.701 470.307 169.486 471.248 171.392 470.238C172.03 469.91 172.452 468.996 173.038 468.72C174.651 467.943 175.539 468.866 176.832 469.315C177.875 469.669 178.134 469.997 179.307 469.781C180.169 469.626 179.781 468.374 178.962 468.53C177.177 468.866 176.03 466.485 174.237 466.631C173.047 466.726 173.03 467.322 172.124 467.805C170.331 468.754 169.469 469.531 167.451 468.668C166.589 468.323 165.813 467.684 164.977 467.278C164.027 466.713 162.943 466.415 161.838 466.415C160.953 466.496 160.123 466.884 159.493 467.511C157.57 469.168 158.631 470.816 153.845 469.056C152.936 468.555 152.07 467.978 151.259 467.33C149.017 465.993 146.327 465.285 144.439 467.451C143.895 468.081 144.801 469.004 145.353 468.366L145.335 468.409Z" fill="#13629A"/>
<path d="M166.141 476.486C169.322 472.585 171.159 477.582 173.832 477.789C175.694 477.936 177.194 475.821 179.065 475.934C181.963 476.106 183.92 479.014 186.825 477.124C187.515 476.676 186.869 475.554 186.17 476.011C183.756 477.582 180.997 474.657 178.565 474.553C176.755 474.475 175.867 475.735 174.099 475.727C170.935 475.727 168.064 472.085 165.227 475.571C164.71 476.218 165.615 477.133 166.141 476.486Z" fill="#13629A"/>
<path d="M30.1432 131.044C35.1146 131.044 39.1447 127.011 39.1447 122.035C39.1447 117.06 35.1146 113.026 30.1432 113.026C25.1717 113.026 21.1416 117.06 21.1416 122.035C21.1416 127.011 25.1717 131.044 30.1432 131.044Z" stroke="#13629A" stroke-miterlimit="10"/>
<path d="M254.475 351.792C256.38 351.792 257.924 350.246 257.924 348.34C257.924 346.434 256.38 344.888 254.475 344.888C252.57 344.888 251.026 346.434 251.026 348.34C251.026 350.246 252.57 351.792 254.475 351.792Z" stroke="#13629A" stroke-width="0.5" stroke-miterlimit="10"/>
<path d="M59.2515 423.648C62.4468 423.648 65.037 421.056 65.037 417.858C65.037 414.66 62.4468 412.068 59.2515 412.068C56.0563 412.068 53.4661 414.66 53.4661 417.858C53.4661 421.056 56.0563 423.648 59.2515 423.648Z" stroke="#13629A" stroke-miterlimit="10"/>
<path d="M455.38 26.5431C457.618 26.5431 459.433 24.7273 459.433 22.4873C459.433 20.2474 457.618 18.4315 455.38 18.4315C453.142 18.4315 451.328 20.2474 451.328 22.4873C451.328 24.7273 453.142 26.5431 455.38 26.5431Z" stroke="#13629A" stroke-miterlimit="10"/>
<path d="M497.396 123.986C498.596 123.986 499.569 123.012 499.569 121.811C499.569 120.61 498.596 119.636 497.396 119.636C496.196 119.636 495.223 120.61 495.223 121.811C495.223 123.012 496.196 123.986 497.396 123.986Z" stroke="#13629A" stroke-miterlimit="10"/>
<path d="M138.171 122.579C141.232 122.579 143.715 120.095 143.715 117.03C143.715 113.966 141.232 111.482 138.171 111.482C135.109 111.482 132.626 113.966 132.626 117.03C132.626 120.095 135.109 122.579 138.171 122.579Z" fill="#20A1F7"/>
<path d="M136.774 47.6936C139.064 47.6936 140.921 45.8353 140.921 43.5429C140.921 41.2506 139.064 39.3922 136.774 39.3922C134.483 39.3922 132.626 41.2506 132.626 43.5429C132.626 45.8353 134.483 47.6936 136.774 47.6936Z" fill="#20A1F7"/>
<path d="M364.58 433.218C368.818 433.218 372.254 429.78 372.254 425.538C372.254 421.297 368.818 417.858 364.58 417.858C360.342 417.858 356.906 421.297 356.906 425.538C356.906 429.78 360.342 433.218 364.58 433.218Z" fill="#20A1F7"/>
<path d="M302.38 305.547C304.394 305.547 306.027 303.913 306.027 301.897C306.027 299.881 304.394 298.247 302.38 298.247C300.365 298.247 298.732 299.881 298.732 301.897C298.732 303.913 300.365 305.547 302.38 305.547Z" fill="#20A1F7"/>
<path d="M98.4395 451.91C101.963 451.91 104.82 449.051 104.82 445.524C104.82 441.997 101.963 439.138 98.4395 439.138C94.9157 439.138 92.0591 441.997 92.0591 445.524C92.0591 449.051 94.9157 451.91 98.4395 451.91Z" stroke="#20A1F7" stroke-miterlimit="10"/>
<path d="M213.726 409.928C214.069 409.928 214.398 409.791 214.641 409.549C214.883 409.306 215.02 408.977 215.02 408.633C215.02 408.29 214.883 407.961 214.641 407.718C214.398 407.475 214.069 407.339 213.726 407.339C213.383 407.339 213.054 407.475 212.812 407.718C212.569 407.961 212.433 408.29 212.433 408.633C212.433 408.977 212.569 409.306 212.812 409.549C213.054 409.791 213.383 409.928 213.726 409.928V409.928Z" fill="#20A1F7"/>
<path d="M402.345 360.482C402 358.989 408.441 360.758 409.381 360.482C410.916 360.024 411.58 358.825 413.304 358.411C415.753 357.832 418.279 358.713 420.598 359.377C422.172 359.96 423.885 360.053 425.513 359.645C428.1 359.161 429.6 358.902 432.109 359.645C433.235 360.048 434.433 360.213 435.627 360.128C436.489 360.067 436.489 358.773 435.627 358.833C432.316 359.075 429.841 356.831 426.513 357.522C424.461 357.953 423.064 358.54 420.943 358.109C420.081 357.936 419.219 357.582 418.357 357.384C416.79 356.978 415.161 356.867 413.554 357.056C411.338 357.41 410.105 358.877 407.855 358.669C406.449 358.549 404.992 357.72 403.544 357.806C401.759 357.927 400.664 359.101 401.052 360.784C401.233 361.595 402.483 361.25 402.302 360.438L402.345 360.482Z" fill="#20A1F7"/>
<path d="M423.314 366.246C426.634 364.9 429.169 366.677 431.704 368.472C431.851 368.548 432.02 368.566 432.18 368.523C432.339 368.48 432.477 368.379 432.566 368.239C434.42 365.815 436.799 365.452 439.464 366.324C440.11 366.539 440.653 366.962 441.309 367.187C442.826 367.614 444.431 367.614 445.948 367.187C446.758 367.005 446.422 365.754 445.603 365.935C440.791 367.014 437.903 361.621 433.661 365.124C431.16 367.178 431.738 366.298 428.574 365.055C427.702 364.639 426.75 364.418 425.784 364.406C424.817 364.394 423.86 364.592 422.978 364.986C422.219 365.297 422.556 366.548 423.323 366.229L423.314 366.246Z" fill="#20A1F7"/>
<path d="M47.396 77.7754C46.9668 81.438 46.8658 85.1317 47.0942 88.8124C47.4477 94.6717 48.0081 103.733 53.923 111.974C55.4179 114.066 57.1543 115.975 59.0963 117.66C63.5229 118.968 68.1124 119.642 72.7279 119.662C82.9969 119.662 90.6017 116.366 97.7322 113.173C104.731 110.026 111.299 105.998 117.279 101.187C117.09 98.8836 116.694 96.6021 116.097 94.3697C111.847 78.3709 98.4306 69.3446 92.352 65.7548C89.8216 68.9003 86.8677 71.6795 83.5746 74.013C80.2551 76.3689 73.4091 81.2185 63.6143 81.5465C57.975 81.6977 52.3911 80.3993 47.396 77.7754V77.7754Z" fill="white"/>
<path d="M185.704 66.4797C188.179 68.5696 190.459 70.8803 192.516 73.3832C196.142 77.4812 198.941 82.243 200.759 87.4058C202.614 93.1406 203.058 99.2391 202.052 105.182C211.389 106.41 220.309 109.812 228.096 115.114C235.882 120.416 242.318 127.471 246.887 135.713C248.882 132.061 250.642 128.285 252.155 124.408C259.829 104.734 259.614 86.2754 258.062 73.642C250.728 68.1418 242.389 64.1341 233.514 61.8457C211.028 56.1245 192.266 63.5284 185.704 66.4797Z" fill="white"/>
<path d="M229.884 428.533C230.747 430.647 232.092 433.555 233.825 436.938C236.248 441.675 239.964 448.924 245.37 455.534C255.096 467.399 266.813 472.922 271.719 475.191C278.095 478.116 284.83 480.182 291.749 481.336C296.813 478.213 301.579 474.628 305.984 470.627C314.948 462.457 322.332 452.704 327.763 441.856C324.061 441.683 320.415 440.886 316.977 439.5C309.303 436.385 304.958 431.156 301.828 427.307C292.982 416.417 289.843 404.301 288.601 397.104C277.016 397.289 265.641 400.241 255.425 405.713C245.209 411.186 236.447 419.021 229.867 428.567L229.884 428.533Z" fill="white"/>
<path opacity="0.14" d="M284.92 396.984C278.19 400.227 272.663 405.524 269.133 412.111C265.089 419.782 263.795 429.275 266.192 436.713C270.969 451.495 291.628 462.118 315.735 457.648C310.149 467.657 301.836 475.872 291.766 481.335C286.387 480.395 281.115 478.917 276.03 476.926C265.919 473.001 256.713 467.056 248.974 459.451C240.252 450.526 233.918 439.545 230.557 427.523C237.791 417.579 247.342 409.554 258.381 404.146C266.708 400.136 275.707 397.707 284.92 396.984V396.984Z" fill="#9E9E9E"/>
<path opacity="0.14" d="M92.0675 66.8594C89.0029 71.0013 86.6137 75.6032 84.9887 80.4937C79.5222 97.0707 84.7473 111.853 86.9028 117.082C77.9511 120.273 68.2074 120.476 59.1308 117.66C54.1147 112.354 50.5232 105.863 48.6913 98.7916C46.8595 91.7206 46.8469 84.3004 48.6548 77.2232C52.1428 79.7022 56.1559 81.3413 60.381 82.0125C77.9789 84.6617 91.188 67.9984 92.0675 66.8594Z" fill="#9E9E9E"/>
<path opacity="0.14" d="M186.92 67.5497C191.535 71.2592 195.326 75.8911 198.051 81.1496C200.21 85.3756 201.666 89.9253 202.362 94.62C203.037 98.7177 203.185 102.885 202.802 107.02C207.485 107.906 212.097 109.137 216.598 110.705C224.539 113.475 231.445 115.883 237.696 121.923C241.71 125.833 244.843 130.555 246.887 135.773C245.797 127.303 243.772 118.98 240.852 110.955C233.93 92.3431 222.528 75.727 207.657 62.5792L186.92 67.5497Z" fill="#9E9E9E"/>
<path d="M46.7493 77.7754C45.0664 92.048 48.755 106.436 57.096 118.135C57.5788 118.808 58.6997 118.135 58.2168 117.488C50.0118 105.983 46.3929 91.8276 48.0685 77.7927C48.1634 76.9298 46.8701 76.9298 46.7752 77.7927L46.7493 77.7754Z" fill="black"/>
<path d="M48.1979 77.6978C54.1558 83.0048 62.9332 82.5475 70.2534 80.8044C78.8749 78.6947 86.6459 73.9975 92.5245 67.3426C93.0763 66.7213 92.1624 65.8066 91.6106 66.4279C86.4982 72.2124 79.9076 76.4934 72.5469 78.811C65.1836 81.0891 55.3026 82.2627 49.1032 76.7658C48.4824 76.2135 47.5685 77.1196 48.1893 77.6805L48.1979 77.6978Z" fill="black"/>
<path d="M58.9584 118.256C77.6685 125.159 100.629 114.511 115.649 103.586C116.322 103.103 115.649 101.972 115.003 102.464C100.224 113.233 77.7203 123.779 59.3033 117.03C58.5187 116.746 58.1824 117.997 58.9584 118.282V118.256Z" fill="black"/>
<path d="M92.0329 66.3158C98.7765 69.5307 104.581 74.4263 108.89 80.5326C113.2 86.639 115.868 93.7513 116.641 101.187C116.718 102.05 118.012 102.05 117.934 101.187C117.158 93.527 114.429 86.1949 110.008 79.8938C105.588 73.5927 99.6236 68.534 92.6882 65.2026C91.9381 64.8401 91.2828 65.9533 92.0329 66.3158V66.3158Z" fill="black"/>
<path d="M231.911 427.532C236.127 417.858 247.534 410.903 256.389 405.958C266.287 400.401 277.203 397.035 288.619 397.752C289.481 397.803 289.481 396.509 288.619 396.457C276.996 395.724 265.813 399.184 255.742 404.845C246.749 409.893 235.049 417.09 230.798 426.91C230.462 427.67 231.583 428.325 231.911 427.566V427.532Z" fill="black"/>
<path d="M288.86 398.218C291.628 417.78 305.596 441.96 327.781 442.469C327.952 442.469 328.117 442.401 328.238 442.279C328.359 442.158 328.427 441.993 328.427 441.822C328.427 441.65 328.359 441.485 328.238 441.364C328.117 441.243 327.952 441.175 327.781 441.175C306.208 440.674 292.792 416.831 290.11 397.847C289.99 397.027 288.748 397.372 288.86 398.192V398.218Z" fill="black"/>
<path d="M230.807 430.491C239.205 457.493 263.571 477.815 291.602 481.284C292.421 481.387 292.412 480.093 291.602 479.989C264.157 476.589 240.265 456.526 232.057 430.146C231.807 429.352 230.557 429.689 230.807 430.491Z" fill="black"/>
<path d="M292.102 481.896C306.776 472.787 318.747 459.912 326.772 444.609C327.16 443.867 326.047 443.211 325.659 443.953C317.743 459.063 305.93 471.777 291.447 480.775C290.748 481.215 291.395 482.337 292.102 481.896V481.896Z" fill="black"/>
<path d="M187.549 69.8452C192.819 73.9165 196.891 79.3378 199.335 85.5356C201.779 91.7334 202.503 98.477 201.431 105.053C201.293 105.864 202.543 106.218 202.673 105.398C203.807 98.548 203.06 91.5181 200.512 85.0598C197.964 78.6016 193.71 72.9579 188.205 68.732C187.541 68.2228 186.894 69.3447 187.549 69.8452V69.8452Z" fill="black"/>
<path d="M192.481 65.9101C214.899 60.8965 240.955 59.697 258.622 77.0506C259.217 77.6374 260.131 76.7227 259.536 76.1359C241.542 58.4544 215.037 59.5762 192.136 64.6589C191.326 64.8401 191.671 66.0914 192.481 65.9101Z" fill="black"/>
<path d="M205.604 108.548C221.9 112.224 240.309 118.558 246.241 135.929C246.278 136.049 246.348 136.155 246.444 136.236C246.54 136.317 246.657 136.369 246.781 136.386C246.906 136.402 247.032 136.382 247.146 136.329C247.259 136.275 247.355 136.19 247.422 136.084C257.949 117.902 258.424 96.527 258.57 76.0841C258.57 75.9124 258.502 75.7478 258.381 75.6265C258.26 75.5051 258.095 75.4369 257.924 75.4369C257.752 75.4369 257.588 75.5051 257.466 75.6265C257.345 75.7478 257.277 75.9124 257.277 76.0841C257.13 96.3027 256.716 117.453 246.301 135.428L247.482 135.583C241.395 117.738 222.737 111.085 205.949 107.296C205.139 107.115 204.794 108.366 205.604 108.548V108.548Z" fill="black"/>
<path d="M268.503 444.549C272.699 442.012 276.545 438.937 279.945 435.402C280.522 434.798 279.608 433.883 279.031 434.487C275.7 437.946 271.932 440.954 267.822 443.435C267.106 443.867 267.762 444.989 268.469 444.549H268.503Z" fill="#20A1F7"/>
<path d="M270.788 435.816C272.879 439.775 275.638 443.343 278.945 446.361C279.557 446.922 280.479 446.007 279.859 445.446C276.635 442.504 273.943 439.027 271.9 435.169C271.512 434.426 270.4 435.082 270.788 435.816V435.816Z" fill="#20A1F7"/>
<path d="M218.494 87.3972C224.284 87.8159 229.674 90.5083 233.488 94.8874C234.04 95.5088 234.954 94.5941 234.402 93.9727C230.342 89.3556 224.625 86.5277 218.494 86.1028C217.632 86.0337 217.675 87.3281 218.494 87.3972V87.3972Z" fill="#20A1F7"/>
<path d="M226.884 80.5628L225.159 93.7484C225.047 94.6114 226.349 94.5596 226.453 93.7484L228.177 80.5628C228.281 79.743 226.987 79.7516 226.884 80.5628Z" fill="#20A1F7"/>
<path d="M74.573 98.693C79.1284 96.9296 83.5465 94.8297 87.7908 92.4108C87.8644 92.3678 87.9288 92.3106 87.9803 92.2426C88.0319 92.1747 88.0695 92.0972 88.0911 92.0147C88.1128 91.9321 88.1179 91.8461 88.1063 91.7616C88.0948 91.6771 88.0666 91.5957 88.0236 91.522C87.9806 91.4483 87.9235 91.3839 87.8556 91.3323C87.7877 91.2807 87.7103 91.2431 87.6278 91.2214C87.5453 91.1998 87.4594 91.1946 87.3749 91.2062C87.2905 91.2178 87.2091 91.246 87.1355 91.289C82.9844 93.6609 78.6611 95.7176 74.2023 97.4417C73.4349 97.7438 73.7625 98.995 74.5385 98.693H74.573Z" fill="#20A1F7"/>
<path d="M78.4012 88.1911L86.8941 100.678C87.3597 101.359 88.4806 100.678 88.015 100.022L79.5135 87.5352C79.0479 86.8535 77.927 87.5352 78.4012 88.1911V88.1911Z" fill="#20A1F7"/>
<path d="M120.167 257.275C111.864 268.992 104.837 281.564 99.2066 294.778C87.6624 322.171 82.1655 351.736 83.0918 381.451C89.4318 389.486 97.7518 395.731 107.234 399.572C133.1 409.833 157.053 396.889 160.691 394.844C161.581 385.896 162.954 377.004 164.804 368.205C171.831 334.386 181.488 323.28 182.238 301.232C182.549 291.982 181.376 278.391 173.754 261.537L120.167 257.275Z" fill="#13629A"/>
<path d="M121.28 205.162C120.433 202.467 120.048 199.649 120.141 196.826C120.325 192.555 121.547 188.393 123.702 184.702C129.66 174.649 140.835 172.431 142.352 172.155C149.824 170.909 157.487 172.624 163.718 176.935C167.374 174.83 171.373 173.387 175.53 172.672C179.884 171.939 183.747 171.292 186.067 173.535C188.705 176.124 187.791 180.87 187.481 182.38C186.877 185.435 185.265 189.18 178.143 195.687C172.107 201.236 166.477 206.344 157.053 209.563C153.268 210.857 148.172 211.289 137.989 212.255C134.083 212.609 130.979 212.773 127.643 211.151C124.996 209.801 122.788 207.723 121.28 205.162V205.162Z" fill="#20A1F7"/>
<path d="M147 210.02C148.675 211.837 150.062 213.9 151.112 216.138C152.94 220.091 152.742 222.826 153.38 227.572C154.149 234.032 155.668 240.38 157.907 246.488C159.752 251.251 160.717 253.676 163.08 255.859C167.9 260.252 174.194 260.312 176.211 260.338C179.031 260.338 182.773 260.398 186.136 257.913C189.248 255.6 190.274 252.416 191.524 248.533C192.775 244.65 194.016 240.767 192.585 235.951C191.477 232.457 189.299 229.399 186.36 227.21C183.488 224.999 180.051 223.644 176.444 223.301C172.311 220.746 168.109 218.028 163.839 215.146C161.252 213.42 158.731 211.674 156.277 209.908L147 210.02Z" fill="black"/>
<path d="M123.021 208.519C123.202 209.882 123.461 211.893 123.711 214.318C124.453 221.42 125.599 232.344 124.694 244.753C123.992 254.104 122.233 263.344 119.452 272.298C126.464 275.901 134.465 277.097 142.224 275.703C149.982 274.309 157.068 270.402 162.39 264.584L161.355 253.262C160.005 251.112 158.85 248.845 157.907 246.488C154.716 238.342 155.665 233.259 153.88 225.078C152.835 220.354 151.168 215.79 148.922 211.504C140.178 213.262 131.104 212.217 122.987 208.519H123.021Z" fill="white"/>
<path d="M157.251 209.269C157.823 211.531 158.608 213.733 159.596 215.845C161.45 219.823 162.675 222.446 165.339 223.982C169.288 226.269 173.961 224.751 175.41 224.215H178.66C178.085 221.914 177.41 219.564 176.634 217.165C175.017 212.016 173.108 206.962 170.917 202.029L157.251 209.269Z" fill="white"/>
<path opacity="0.17" d="M145.37 213.886C143.254 217.734 141.521 221.78 140.197 225.967C137.36 235.028 137.713 240.818 136.834 245.97C135.73 252.442 132.083 261.503 120.236 271.616C121.808 265.608 123 259.506 123.806 253.348C124.529 247.772 124.938 242.16 125.03 236.538C125.124 230.866 124.9 225.194 124.358 219.547L145.37 213.886Z" fill="#9E9E9E"/>
<path d="M122.987 209.589C123.254 211.315 123.633 213.774 124.03 216.777C126.444 235.227 125.358 241.802 127.393 242.527C129.428 243.252 134.532 237.936 147.689 211.737C139.399 212.902 130.952 212.167 122.987 209.589V209.589Z" fill="black"/>
<path d="M171.305 205.602C174.145 211.637 176.4 217.931 178.039 224.397L178.833 223.594C177.461 223.351 176.069 223.241 174.677 223.266C174.505 223.266 174.341 223.334 174.219 223.456C174.098 223.577 174.03 223.742 174.03 223.913C174.03 224.085 174.098 224.25 174.219 224.371C174.341 224.492 174.505 224.561 174.677 224.561C175.954 224.474 177.237 224.57 178.488 224.845C178.597 224.872 178.712 224.871 178.821 224.84C178.929 224.81 179.028 224.752 179.108 224.672C179.188 224.593 179.246 224.493 179.276 224.385C179.306 224.276 179.308 224.161 179.281 224.052C177.611 217.484 175.316 211.092 172.426 204.963C172.073 204.204 170.952 204.86 171.305 205.611V205.602Z" fill="black"/>
<path d="M156.432 209.727C158.303 214.361 159.786 220.66 163.959 223.827C165.64 225.066 167.633 225.811 169.714 225.977C171.795 226.143 173.881 225.724 175.737 224.768C176.487 224.405 175.832 223.284 175.091 223.646C173.06 224.685 170.729 224.977 168.505 224.471C166.282 223.964 164.306 222.692 162.925 220.876C160.416 217.588 159.217 213.187 157.682 209.382C157.372 208.622 156.122 208.95 156.432 209.727V209.727Z" fill="black"/>
<path d="M179.548 224.707C194.404 228.452 196.353 246.341 186.903 256.558C186.334 257.162 187.248 258.086 187.817 257.473C197.922 246.548 195.689 227.443 179.893 223.456C179.811 223.433 179.725 223.427 179.641 223.438C179.556 223.448 179.475 223.475 179.401 223.517C179.327 223.559 179.262 223.616 179.209 223.683C179.157 223.75 179.118 223.827 179.096 223.909C179.073 223.991 179.067 224.077 179.077 224.162C179.088 224.246 179.115 224.328 179.157 224.402C179.199 224.476 179.255 224.541 179.322 224.594C179.389 224.646 179.466 224.685 179.548 224.707V224.707Z" fill="black"/>
<path d="M149.06 213.722C157.226 227.641 151.647 247.774 165.365 258.75C166.003 259.268 166.925 258.362 166.279 257.835C152.802 247.023 158.269 226.856 150.173 213.066C150.081 212.93 149.94 212.833 149.779 212.797C149.619 212.761 149.45 212.787 149.308 212.871C149.166 212.954 149.062 213.089 149.016 213.247C148.969 213.405 148.986 213.575 149.06 213.722V213.722Z" fill="black"/>
<path d="M122.366 209.727C125.752 230.266 124.818 251.286 119.624 271.444C119.602 271.526 119.595 271.612 119.606 271.696C119.616 271.781 119.643 271.863 119.685 271.937C119.727 272.011 119.784 272.076 119.851 272.128C119.918 272.181 119.995 272.219 120.077 272.242C120.159 272.265 120.245 272.271 120.329 272.261C120.414 272.25 120.495 272.223 120.569 272.181C120.643 272.139 120.708 272.083 120.761 272.015C120.813 271.948 120.852 271.871 120.874 271.789C126.117 251.407 127.048 230.153 123.608 209.39C123.47 208.57 122.228 208.916 122.366 209.727V209.727Z" fill="black"/>
<path d="M119.848 204.868C121.754 210.046 126.936 211.91 132.006 212.635C139.499 213.632 147.119 213.044 154.372 210.909C168.444 206.721 180.28 197.115 187.282 184.201C187.688 183.476 186.575 182.82 186.17 183.554C181.655 192.01 174.95 199.094 166.758 204.065C158.566 209.035 149.19 211.709 139.61 211.806C133.368 211.875 123.711 211.53 121.124 204.549C120.84 203.781 119.59 204.109 119.883 204.894L119.848 204.868Z" fill="black"/>
<path d="M121.9 204.989C120.056 198.667 120.749 191.875 123.83 186.056C126.912 180.236 132.14 175.85 138.403 173.829C151.009 169.626 164.27 175.218 171.771 185.763C172.254 186.436 173.375 185.763 172.892 185.107C164.77 173.699 150.267 167.849 136.817 173.026C130.547 175.377 125.397 180.013 122.399 186.005C119.4 191.997 118.776 198.901 120.65 205.334C120.892 206.128 122.142 205.792 121.9 204.989V204.989Z" fill="black"/>
<path d="M165.882 177.263C169.238 175.227 172.928 173.804 176.781 173.061C179.272 172.595 183.256 171.861 185.403 173.777C188.343 176.366 187.541 181.077 185.955 184.063C185.558 184.797 186.67 185.452 187.067 184.71C189.248 180.629 189.585 173.415 184.187 171.542C178.436 169.549 170.055 173.268 165.218 176.15C165.082 176.242 164.985 176.383 164.949 176.544C164.913 176.705 164.939 176.873 165.023 177.015C165.106 177.157 165.241 177.262 165.399 177.308C165.557 177.354 165.727 177.338 165.874 177.263H165.882Z" fill="black"/>
<path d="M165.667 208.501C166.309 209.514 166.715 210.658 166.856 211.85L168.064 211.522C167.189 210.342 166.612 208.968 166.382 207.518C166.244 206.655 165.003 207.043 165.132 207.854C165.386 209.415 166.007 210.894 166.943 212.169C167.27 212.618 168.236 212.557 168.15 211.841C167.996 210.422 167.53 209.055 166.787 207.837C166.348 207.129 165.227 207.777 165.667 208.493V208.501Z" fill="black"/>
<path d="M149.836 217.813C146.051 216.673 143.18 220.85 143.076 224.241C143.034 225.151 143.187 226.058 143.526 226.903C143.865 227.748 144.382 228.51 145.041 229.137C145.7 229.764 146.487 230.242 147.347 230.537C148.207 230.833 149.121 230.94 150.026 230.851C150.845 230.757 150.888 229.462 150.026 229.557C141.93 230.42 143.697 217.312 149.491 219.055C149.65 219.085 149.815 219.054 149.952 218.968C150.09 218.883 150.19 218.748 150.234 218.592C150.277 218.436 150.26 218.269 150.187 218.125C150.113 217.981 149.988 217.869 149.836 217.813Z" fill="black"/>
<path d="M165.287 258.612C171.435 261.356 182.945 262.979 188.084 257.205C188.636 256.584 187.722 255.669 187.162 256.291C182.454 261.589 171.521 259.984 165.943 257.499C165.192 257.162 164.528 258.276 165.287 258.612Z" fill="black"/>
<path d="M166.287 213.791C166.647 213.326 167.131 212.971 167.683 212.768C168.235 212.565 168.833 212.522 169.409 212.644C170.219 212.816 170.564 211.573 169.753 211.392C168.958 211.209 168.127 211.251 167.353 211.513C166.58 211.775 165.894 212.247 165.373 212.877C164.856 213.515 165.761 214.438 166.287 213.791V213.791Z" fill="black"/>
<path d="M160.709 253.089C160.41 255.21 160.326 257.355 160.459 259.492C160.511 260.355 161.804 260.355 161.752 259.492C161.616 257.477 161.683 255.454 161.95 253.452C162.063 252.641 160.821 252.287 160.709 253.107V253.089Z" fill="black"/>
<path d="M159.226 269.347C161.684 266.618 164.714 264.464 168.098 263.039C173.797 260.674 179.367 261.002 185.747 262.288C197.706 264.704 205.923 269.192 212.381 272.376C222.756 277.513 233.487 281.897 244.49 285.492C251.276 281.92 258.475 277.778 265.925 272.963C271.762 269.192 277.134 265.395 282.092 261.667C282.815 257.496 284.926 253.692 288.081 250.872C291.237 248.053 295.251 246.383 299.474 246.134C306.679 249.967 314.698 252.015 322.857 252.106C321.995 256.619 321.633 259.639 322.15 259.786C322.668 259.932 323.702 258.276 323.366 257.689C322.65 256.42 314.52 259.182 293.68 269.028C285.23 278.132 277.832 285.579 272.124 291.171C261.7 301.353 256.501 306.143 249.707 311.018C245.525 314.03 241.869 316.308 239.274 317.853C236.957 318.171 234.62 318.327 232.281 318.319C225.367 318.228 218.535 316.807 212.157 314.133C204.147 311.044 192.516 307.471 174.702 303.053L159.226 269.347Z" fill="white"/>
<path opacity="0.24" d="M157.906 266.611C160.735 268.967 165.106 272.548 170.555 276.742C200.871 300.093 216.572 311.881 231.773 309.085C235.291 308.438 241.895 302.743 255.096 291.36C280.1 269.787 286.998 259.855 302.578 255.644C309.057 253.938 315.797 253.458 322.452 254.228C323.633 256.972 323.314 258.586 322.866 259.509C320.46 264.687 309.165 260.813 297.991 266.473C295.861 267.543 294.853 268.406 287.049 276.095C272.581 290.273 268.365 294.907 263.502 299.472C256.034 306.466 247.873 312.68 239.145 318.016C233.109 317.68 226.737 317.041 220.021 315.997C203.785 313.463 187.927 308.914 172.814 302.458L157.906 266.611Z" fill="#9E9E9E"/>
<path d="M163.623 266.378C175.737 257.378 190.619 264.118 202.845 269.149L242.706 285.544C243.473 285.855 243.809 284.604 243.05 284.293C228.212 278.183 213.39 272.013 198.517 265.973C187.205 261.373 173.789 257.214 162.968 265.257C162.312 265.749 162.968 266.87 163.623 266.37V266.378Z" fill="black"/>
<path d="M239.817 289.048C250.974 282.317 262.425 276.052 273.573 269.312C277.315 267.052 281.031 264.445 283.557 260.804C284.894 258.888 285.592 256.722 286.601 254.643C287.386 252.89 288.552 251.335 290.014 250.092C291.475 248.848 293.196 247.947 295.051 247.454C295.2 247.397 295.322 247.286 295.395 247.143C295.467 247 295.484 246.836 295.442 246.681C295.4 246.527 295.303 246.393 295.168 246.307C295.034 246.22 294.872 246.186 294.715 246.212C292.794 246.707 291 247.605 289.451 248.846C287.902 250.086 286.634 251.641 285.73 253.409C284.161 256.463 283.307 259.397 280.962 261.995C278.927 264.142 276.606 265.997 274.064 267.509C262.675 274.671 250.716 280.979 239.188 287.926C239.039 288.013 238.931 288.155 238.887 288.322C238.844 288.489 238.868 288.666 238.955 288.815C239.042 288.964 239.184 289.072 239.351 289.115C239.517 289.159 239.694 289.135 239.843 289.048H239.817Z" fill="black"/>
<path d="M172.65 303.088C184.906 307.478 197.379 311.237 210.019 314.349C216.072 315.845 222.162 317.179 228.289 318.353C232.756 319.216 237.187 319.924 241.378 317.723C245.999 315.29 250.207 311.562 254.233 308.274C259.002 304.374 263.597 300.266 268.029 296.029C276.979 287.529 285.403 278.494 293.827 269.468C294.387 268.855 293.473 267.94 292.904 268.553C277.487 285.087 261.864 302.32 243.068 315.152C237.093 319.216 231.221 317.689 224.616 316.342C218.77 315.146 212.956 313.811 207.174 312.338C195.611 309.396 184.204 305.875 172.961 301.862C172.176 301.586 171.84 302.829 172.625 303.114L172.65 303.088Z" fill="black"/>
<path d="M303.621 248.335C306.923 249.945 310.431 251.092 314.045 251.743C315.438 251.985 316.842 252.149 318.253 252.235C320.4 252.364 320.693 251.829 321.961 254.03C323.133 256.084 322.952 257.128 322.297 259.337C322.267 259.496 322.298 259.661 322.384 259.799C322.469 259.936 322.603 260.037 322.759 260.08C322.915 260.123 323.082 260.106 323.226 260.033C323.371 259.959 323.482 259.834 323.538 259.682C324.306 257.093 325.263 252.399 322.176 251.053C321.322 250.908 320.452 250.879 319.589 250.967C317.842 250.912 316.099 250.745 314.373 250.466C310.866 249.839 307.46 248.736 304.251 247.187C303.5 246.833 302.845 247.946 303.604 248.3L303.621 248.335Z" fill="black"/>
<path d="M294.232 269.381C297.931 264.204 308.605 267.889 313.951 267.103C318.417 266.447 320.848 264.135 322.711 260.148C323.064 259.397 321.952 258.741 321.599 259.501C317.882 267.405 310.648 265.869 303.294 265.541C299.621 265.395 295.43 265.438 293.119 268.7C292.637 269.381 293.758 270.029 294.232 269.347V269.381Z" fill="black"/>
<path d="M0.793213 184.132C1.31917 185.496 26.0476 364.028 26.0476 364.028L182.049 453.074C178.134 390.402 174.223 327.725 170.314 265.041L0.793213 184.132Z" fill="white" stroke="black" stroke-miterlimit="10"/>
<path opacity="0.18" d="M70.8225 217.545C67.0009 230.014 64.722 242.904 64.0369 255.928C58.6049 361.396 162.14 438.715 182.049 453.074L25.9872 364.02C17.6122 304.063 9.2142 244.1 0.793213 184.132L70.8225 217.545Z" fill="#9E9E9E"/>
<path d="M293.059 39.4008C296.103 49.4281 298.879 59.9904 301.267 71.0618C313.873 129.526 311.519 182.51 304.777 224.664L466.486 237.556L471.167 48.755L293.059 39.4008Z" fill="white" stroke="black" stroke-miterlimit="10"/>
<path opacity="0.18" d="M386.912 137.637C386.24 127.439 386.749 117.197 388.429 107.115C391.223 90.3916 392.818 80.813 400.879 74.1857C410.821 66.0137 427.608 64.7711 439.558 72.572C453.354 81.6069 449.983 104.621 449.233 122.579C448.077 149.96 450.5 188.619 466.477 237.582L427.781 229.574C427.263 227.779 426.729 225.993 426.168 224.198C416.752 193.815 403.563 164.734 386.912 137.637V137.637Z" fill="#9E9E9E"/>
<path d="M351.957 141.555C351.216 142.496 350.164 143.868 348.991 145.585C348.129 146.81 344.456 152.229 342.688 156.993C340.869 161.894 341.033 166.287 341.585 172.163C342.619 182.944 344.347 193.646 346.758 204.204C342.342 207.615 338.109 211.256 334.075 215.111C329.298 219.668 328.798 220.703 324.142 224.889C318.227 230.196 315.278 232.853 310.553 235.287C307.286 236.97 305.544 237.349 301.871 239.766C296.654 243.217 295.387 245.582 294.852 246.867C293.688 249.715 293.585 253.443 294.852 254.056C296.12 254.668 299.017 251.803 300.715 250.052C301.63 249.117 302.472 248.113 303.233 247.049C306.279 249.524 310.047 250.939 313.968 251.079C316.835 251.164 319.681 250.554 322.262 249.301C322.779 247.181 323.598 245.147 324.694 243.26C327.392 238.601 330.884 236.452 337.463 232.042C346.137 226.278 350.457 223.111 351.483 222.36C359.027 216.811 361.467 214.318 363.235 210.797C364.597 208.104 365.037 205.835 365.64 202.694C366.543 197.236 366.737 191.685 366.218 186.177C365.304 177.03 360.847 160.859 351.957 141.555Z" fill="white"/>
<path d="M300.888 265.067C301.958 263.802 302.905 262.438 303.716 260.994C305.742 257.68 305.794 256.601 307.648 254.194C308.614 252.951 309.872 251.32 310.597 251.605C311.562 251.967 311.062 255.445 310.898 256.515C311.623 253.598 314.597 252.304 316.503 253.158C318.115 253.883 319.09 256.239 318.314 258.543C320.236 257.68 320.857 258.094 321.064 258.276C322.081 259.19 320.667 262.297 319.745 263.833C318.909 265.314 317.747 266.586 316.348 267.552C314.822 268.57 313.339 268.941 304.354 269.036C299.966 269.079 298.319 269.036 298.103 268.32C297.888 267.604 299.112 267.086 300.888 265.067Z" fill="white"/>
<path opacity="0.2" d="M356.449 151.91C356.708 155.491 357.061 160.807 357.389 167.253C358.001 179.231 358.312 185.219 358.018 188.067C357.605 192.132 355.63 206.31 345.378 217.131C339.343 223.508 335.747 223.094 326.306 232.664C323.007 235.981 319.987 239.566 317.279 243.381C315.549 245.822 313.952 248.354 312.493 250.966C313.844 251.895 315.472 252.334 317.106 252.209C318.12 252.103 319.102 251.792 319.992 251.293C320.881 250.795 321.66 250.12 322.28 249.31C323.258 245.995 324.862 242.899 327.005 240.188C329.824 236.642 332.385 235.347 339.645 230.601C346.12 226.356 349.362 224.224 352.371 221.765C357.467 217.571 361.683 214.11 364.218 208.605C366.684 203.229 366.529 198.112 366.003 192.727C364.528 177.634 360.424 163.128 356.449 151.91Z" fill="#9E9E9E"/>
<path opacity="0.22" d="M302.543 269.01C304.51 268.567 306.366 267.731 308.001 266.551C314.425 261.848 314.804 252.994 316.503 253.141C317.072 253.193 317.753 254.254 318.313 258.526C319.771 257.939 320.685 257.853 321.064 258.258C321.88 259.138 320.233 262.303 316.123 267.751L302.543 269.01Z" fill="#9E9E9E"/>
<path d="M348.534 145.093C333.213 161.489 344.973 185.15 346.146 204.169C346.198 205.032 347.491 205.032 347.439 204.169C346.292 185.565 334.506 162.032 349.448 146.008C350.017 145.404 349.103 144.48 348.534 145.093Z" fill="black"/>
<path d="M348.379 204.144C340.817 205.697 334.144 214.067 328.936 219.271C321.926 226.269 314.951 232.431 306.001 236.832C300.19 239.688 292.895 244.201 293.654 251.778C294.516 260.605 301.759 249.836 303.733 247.463C304.268 246.824 303.354 245.91 302.819 246.548C301.655 247.938 297.249 255.117 295.12 252.692C293.628 250.966 295.904 246.505 296.844 245.073C298.037 243.399 299.542 241.972 301.276 240.87C306.596 237.298 312.606 235.244 317.736 231.283C322.625 227.512 326.927 223.068 331.29 218.719C335.946 214.085 342.068 206.741 348.707 205.386C349.526 205.214 349.181 203.971 348.362 204.135L348.379 204.144Z" fill="black"/>
<path d="M365.158 192.045C365.494 199.173 365.589 206.776 361.252 212.842C357.26 218.417 350.905 222.032 345.353 225.864C336.291 232.12 324.659 237.625 321.65 249.163C321.628 249.245 321.621 249.331 321.632 249.415C321.642 249.5 321.669 249.582 321.711 249.656C321.753 249.73 321.81 249.795 321.877 249.847C321.944 249.9 322.021 249.938 322.103 249.961C322.185 249.984 322.271 249.99 322.355 249.98C322.44 249.969 322.521 249.942 322.595 249.9C322.67 249.858 322.735 249.802 322.787 249.734C322.839 249.667 322.878 249.59 322.901 249.508C324.944 241.586 330.824 237.496 337.222 233.112C343.051 229.082 349.034 225.208 354.708 220.954C358.717 217.951 362.468 214.499 364.477 209.83C366.899 204.273 366.727 198.034 366.451 192.114C366.451 191.251 365.115 191.251 365.158 192.114V192.045Z" fill="black"/>
<path d="M298.327 268.053C300.544 266.546 302.392 264.558 303.733 262.236C304.949 260.269 307.881 252.52 310.433 252.373C311.295 252.33 311.295 251.035 310.433 251.079C308.07 251.217 306.38 254.841 305.389 256.601C303.225 260.407 301.466 264.454 297.68 266.957C296.982 267.414 297.629 268.527 298.327 268.07V268.053Z" fill="black"/>
<path d="M310.045 251.916C311.114 253.642 308.941 257.844 308.277 259.311C307.468 261.103 306.528 262.834 305.466 264.489C305.018 265.196 306.139 265.843 306.587 265.144C308.162 262.678 309.471 260.051 310.493 257.309C311.166 255.462 312.33 253.124 311.157 251.268C310.717 250.561 309.596 251.208 310.045 251.916V251.916Z" fill="black"/>
<path d="M310.648 257.784C312.472 255.586 314.8 253.863 317.434 252.761L316.572 252.528C318.745 256.299 315.253 261.831 313.063 264.998C312.588 265.679 313.709 266.327 314.183 265.645C316.667 262.064 320.176 256.153 317.693 251.838C317.602 251.7 317.465 251.601 317.306 251.558C317.147 251.515 316.978 251.532 316.83 251.605C314.095 252.753 311.678 254.547 309.786 256.834C309.252 257.464 310.157 258.388 310.7 257.749L310.648 257.784Z" fill="black"/>
<path d="M315.882 252.968C314.297 257.336 312.208 261.503 309.657 265.386C309.191 266.076 310.312 266.732 310.769 266.033C313.39 262.058 315.537 257.789 317.167 253.314C317.451 252.528 316.21 252.192 315.925 252.968H315.882Z" fill="black"/>
<path d="M318.77 258.983C320.495 258.914 321.047 258.621 320.443 258.12C320.34 258.552 320.219 258.983 320.098 259.389C319.791 260.381 319.413 261.35 318.969 262.288C318.144 264.016 317.11 265.636 315.891 267.112C315.365 267.751 316.279 268.665 316.805 268.027C318.891 265.481 321.34 261.857 321.693 258.465C321.952 256.006 318.952 257.188 317.857 258.103C317.21 258.638 318.132 259.553 318.77 259.018V258.983Z" fill="black"/>
<path d="M297.931 268.924C303.397 270.987 310.536 269.157 316.123 268.415C316.934 268.311 316.986 267.008 316.123 267.121C310.657 267.845 303.595 269.709 298.275 267.673C297.491 267.379 297.155 268.631 297.931 268.924V268.924Z" fill="black"/>
<path d="M345.206 142.996C346.474 146.491 348.439 152.16 350.379 159.297C354.854 175.555 353.759 179.144 358.096 185.953C361.89 191.907 363.27 190 373.116 201.02C379.29 207.923 382.6 211.824 384.946 217.416C386.262 220.622 387.166 223.982 387.636 227.417L440.093 232.879C434.586 208.677 425.496 185.435 413.123 163.922C407.132 153.528 400.388 143.586 392.947 134.177C386.394 132.391 370.012 128.999 354.044 137.111C350.884 138.731 347.919 140.705 345.206 142.996V142.996Z" fill="#20A1F7"/>
<path d="M387.299 143.617C388.344 141.912 389.608 140.351 391.059 138.975C393.128 137.016 396.016 134.289 400.31 133.84C405.303 133.323 409.114 136.213 410.45 137.223C413.183 139.303 414.554 141.659 416.296 144.843C422.331 155.94 424.185 160.643 424.185 160.643C428.005 170.36 429.919 175.227 432.807 184.512C435.316 192.58 438.282 203.091 441.059 215.647C440.345 217.805 439.137 219.767 437.532 221.376C435.578 223.222 433.172 224.52 430.557 225.139C407.967 231.179 378.582 230.394 378.582 230.394C375.392 230.308 370.822 230.161 365.218 229.876C363.446 230.388 361.586 230.517 359.76 230.256C356.656 229.79 355.561 228.383 352.328 226.994C349.273 225.707 345.986 225.061 342.671 225.096C337.549 225.225 333.463 227.313 332.54 225.881C332.342 225.533 332.255 225.132 332.29 224.733C332.373 224.305 332.552 223.901 332.814 223.551C333.075 223.201 333.412 222.915 333.799 222.714C334.07 222.249 334.378 221.808 334.721 221.394C335.117 220.909 335.559 220.464 336.041 220.065C336.155 219.475 336.325 218.897 336.549 218.339C336.992 217.288 337.614 216.322 338.386 215.483C340.05 213.8 342.956 213.99 346.422 214.257C349.083 214.471 351.712 214.984 354.259 215.785C354.406 214.145 354.811 213.196 355.484 212.937C356.995 212.362 359.846 215.238 364.037 221.566C368.867 221.135 373.659 220.35 378.376 219.219C383.652 217.943 388.825 216.272 393.852 214.223C399.491 211.919 401.104 210.693 406.165 209.131C409.327 208.158 412.562 207.443 415.839 206.991C413.183 200.252 410.864 194.634 409.122 190.492C401.802 173.113 395.784 160.634 394.154 157.278C391.369 151.582 388.981 146.871 387.299 143.617Z" fill="white"/>
<path opacity="0.21" d="M404.026 133.659C406.699 136.601 409.162 139.727 411.398 143.013C424.064 161.627 425.608 179.964 426.616 194.073C427.737 209.71 425.375 213.135 424.03 214.663C421.012 218.071 418.149 217.597 401.836 220.168C391.817 221.756 374.107 224.906 365.123 224.94C362.205 224.936 359.289 224.769 356.389 224.44C354.207 224.164 353 223.836 351.957 223.741C346.796 223.272 341.593 223.728 336.592 225.087C341.548 224.209 346.645 224.619 351.397 226.278C354.221 227.278 356.869 228.719 359.243 230.549L365.908 229.583C376.884 230.17 386.178 230.152 393.249 229.963C411.071 229.497 417.822 227.917 420.84 227.115C426.514 225.635 432.019 223.567 437.265 220.945L440.783 215.206C440.412 213.524 439.826 210.892 439.058 207.759C435.401 192.175 430.582 176.887 424.642 162.024C417.744 144.955 417.675 149.805 413.511 140.804C412.779 139.104 411.674 137.591 410.277 136.377C408.479 134.92 406.318 133.98 404.026 133.659V133.659Z" fill="#9E9E9E"/>
<path d="M386.739 143.945C397.197 164.266 406.627 185.101 414.994 206.37C415.296 207.138 416.546 206.801 416.244 206.025C407.838 184.648 398.365 163.707 387.86 143.281C387.472 142.539 386.359 143.186 386.739 143.928V143.945Z" fill="black"/>
<path d="M419.538 207.768C417.374 205.818 414.666 206.43 412.028 207.052C406.854 208.277 402.052 210.503 397.163 212.531C386.444 216.892 375.138 219.64 363.614 220.686C362.795 220.764 362.752 222.058 363.614 221.981C372.901 221.162 382.059 219.245 390.895 216.268C395.284 214.766 399.517 212.885 403.828 211.168C407.277 209.77 415.408 205.766 418.65 208.683C419.27 209.244 420.184 208.329 419.564 207.768H419.538Z" fill="black"/>
<path d="M410.433 137.982C419.374 148.536 424.306 161.834 428.85 174.718C433.387 187.632 437.08 200.828 439.903 214.223C440.076 215.034 441.326 214.697 441.153 213.878C438.107 199.41 434.042 185.176 428.988 171.283C424.573 159.202 419.753 146.991 411.347 137.068C410.812 136.438 409.898 137.352 410.433 137.982V137.982Z" fill="black"/>
<path d="M366.184 230.679C381.247 231.188 396.404 231.688 411.407 229.816C420.96 228.616 436.575 227.46 441.291 217.347C441.636 216.596 440.524 215.931 440.171 216.691C437.463 222.498 431.255 224.5 425.47 225.941C418.744 227.565 411.899 228.65 405.001 229.186C392.067 230.265 379.134 229.833 366.201 229.393C365.339 229.393 365.339 230.662 366.201 230.688L366.184 230.679Z" fill="black"/>
<path d="M365.037 229.255C359.002 231.499 354.354 226.217 348.819 224.828C343.645 223.534 337.722 224.828 332.531 225.234C331.669 225.303 331.669 226.597 332.531 226.528C340.076 225.933 346.706 224.802 353.716 228.358C357.527 230.282 361.114 232.085 365.382 230.506C366.158 230.213 365.822 228.962 365.037 229.255V229.255Z" fill="black"/>
<path d="M364.244 220.324C362.958 217.561 360.882 215.242 358.277 213.662C357.415 213.135 356.139 212.324 355.07 212.73C354.881 212.795 354.708 212.898 354.559 213.032C354.411 213.166 354.291 213.328 354.207 213.509C354.122 213.69 354.075 213.886 354.068 214.086C354.061 214.286 354.093 214.485 354.164 214.671C354.44 215.448 355.691 215.112 355.415 214.326C355.242 213.843 356.855 214.326 356.932 214.395C357.327 214.595 357.71 214.817 358.079 215.06C358.847 215.56 359.56 216.138 360.209 216.786C361.416 217.989 362.4 219.397 363.114 220.945C363.476 221.696 364.589 221.04 364.235 220.298L364.244 220.324Z" fill="black"/>
<path d="M362.399 220.462C359.428 217.395 355.663 215.217 351.526 214.171C347.388 213.126 343.041 213.254 338.972 214.542C338.179 214.792 338.524 216.044 339.317 215.793C343.169 214.553 347.292 214.419 351.216 215.406C355.141 216.393 358.71 218.462 361.519 221.376C362.106 221.972 363.019 221.057 362.433 220.462H362.399Z" fill="black"/>
<path d="M332.497 225.596C334.325 222.628 340.041 223.007 343.068 222.602C343.887 222.507 343.93 221.212 343.068 221.307C339.446 221.747 333.583 221.359 331.385 224.94C330.945 225.657 332.066 226.304 332.497 225.596V225.596Z" fill="black"/>
<path d="M334.187 222.869C337.136 220.229 341.171 220.134 344.922 220.108C345.093 220.108 345.258 220.04 345.379 219.918C345.5 219.797 345.568 219.632 345.568 219.461C345.568 219.289 345.5 219.124 345.379 219.003C345.258 218.882 345.093 218.814 344.922 218.814C340.792 218.814 336.498 219.064 333.273 221.955C332.652 222.516 333.566 223.422 334.187 222.869Z" fill="black"/>
<path d="M336.558 220.082C337.368 217.372 343.223 217.666 345.378 217.778C346.241 217.821 346.241 216.527 345.378 216.484C342.481 216.328 336.385 216.164 335.308 219.737C335.066 220.539 336.316 220.876 336.558 220.082V220.082Z" fill="black"/>
<path d="M337.713 217.493C337.961 216.871 338.435 216.366 339.039 216.08C339.644 215.793 340.335 215.746 340.972 215.949C341.766 216.207 342.111 214.956 341.317 214.706C340.351 214.414 339.309 214.505 338.408 214.959C337.506 215.414 336.813 216.197 336.472 217.148C336.179 217.933 337.429 218.27 337.713 217.493V217.493Z" fill="black"/>
<path d="M393.214 137.758C395.801 136.222 398.457 134.591 401.5 134.375C404.949 134.125 407.484 135.877 410.122 137.784C410.795 138.276 411.442 137.154 410.769 136.662C408.113 134.746 405.38 132.926 401.974 133.012C398.569 133.098 395.43 134.928 392.559 136.636C391.852 137.068 392.499 138.19 393.214 137.758Z" fill="black"/>
<path d="M325.694 99.0123C324.985 103.667 324.918 108.397 325.496 113.07C326.141 118.764 327.968 124.26 330.859 129.206C334.257 134.848 338.996 139.561 344.654 142.927C346.181 142.766 347.693 142.495 349.181 142.116C352.368 141.304 355.416 140.022 358.225 138.31C359.742 139.592 361.386 140.713 363.131 141.659C367.083 143.766 371.461 144.946 375.935 145.11C379.795 140.482 382.839 135.229 384.937 129.577C386.851 124.4 392.154 110.041 385.351 97.1052C382.868 92.3763 379.738 89.7012 376.142 86.6292C368.943 80.4851 359.527 72.4425 347.689 74.6948C334.566 77.1887 327.375 90.6073 326.134 96.5702C326.039 96.855 325.875 97.7956 325.694 99.0123Z" fill="white"/>
<path opacity="0.26" d="M347.224 81.5983C352.63 85.9756 356.654 91.8261 358.81 98.443C360.966 105.06 361.161 112.16 359.372 118.886C356.225 132.184 347.215 140.088 343.697 142.867C346.163 142.314 348.802 141.615 351.587 140.718C353.966 139.959 356.182 139.139 358.208 138.31C359.726 139.59 361.37 140.712 363.114 141.659C365.515 142.947 368.087 143.886 370.754 144.446C376.634 137.855 381.079 130.111 383.808 121.707C386.317 113.889 388.576 106.822 385.437 99.7026C382.221 92.4108 375.142 89.1748 368.745 86.2581C361.981 83.2003 354.646 81.6121 347.224 81.5983V81.5983Z" fill="#9E9E9E"/>
<path d="M326.117 96.5875C331.057 88.9977 338.089 83.0031 346.361 79.3288C346.979 81.1771 347.758 82.9674 348.689 84.679C354.492 95.2845 364.839 99.9616 369.883 101.86C371.918 99.3316 375.056 98.2702 377.574 99.1763C380.712 100.307 381.523 103.931 381.738 104.915C382.199 107.145 381.853 109.466 380.764 111.464C378.867 114.778 374.849 116.642 370.521 116.314C369.253 117.177 363.502 121.293 362.157 128.861C360.769 136.628 364.873 143.989 370.521 147.923C374.038 150.292 378.198 151.519 382.437 151.435C386.675 151.352 390.785 149.963 394.206 147.457C400.716 142.66 402.052 135.376 402.328 133.651C407.415 137.542 413.77 138.155 418.038 135.376C423.004 132.123 423.935 125.021 422.53 120.241C420.279 112.535 412.821 113.337 400.474 100.738C395.956 96.1388 393.895 93.7139 391.542 89.9688C385.937 81.0202 386.515 75.2989 377.746 70.7512C360.674 61.8975 341.619 70.432 339.421 71.4502C329.735 76.0578 321.817 83.7058 316.874 93.2307C318.806 98.9112 319.683 104.898 319.46 110.895C318.943 122.665 314.287 126.143 314.347 136.93C314.347 141.443 314.425 151.902 321.78 158.313C329.324 164.88 343.62 166.39 351.742 158.08C358.881 150.771 357.139 140.079 356.915 138.811L345.249 142.97C340.881 140.567 337.017 137.344 333.868 133.478C321.986 118.748 325.41 100.082 326.117 96.5875Z" fill="#13629A"/>
<path d="M325.47 96.5875C323.306 114.226 327.772 133.167 343.378 143.428C344.068 143.885 344.723 142.763 344.025 142.306C328.815 132.313 324.659 113.734 326.78 96.5702C326.884 95.7073 325.591 95.759 325.487 96.5702L325.47 96.5875Z" fill="black"/>
<path d="M344.637 143.574C351.179 142.862 357.321 140.067 362.157 135.601C362.769 135.04 361.855 134.125 361.235 134.686C356.654 138.926 350.838 141.587 344.637 142.28C343.818 142.375 343.775 143.669 344.637 143.574Z" fill="black"/>
<path d="M337.575 102.309C337.736 109.656 338.587 116.971 340.119 124.158C340.151 124.267 340.21 124.365 340.291 124.444C340.372 124.523 340.472 124.579 340.582 124.608C340.691 124.637 340.806 124.637 340.915 124.608C341.024 124.579 341.124 124.522 341.205 124.443C342.528 123.013 343.736 121.481 344.818 119.861C345.284 119.171 344.163 118.515 343.706 119.205C342.67 120.731 341.517 122.174 340.257 123.52L341.335 123.804C339.826 116.731 338.989 109.531 338.834 102.3C338.834 101.437 337.515 101.437 337.541 102.3L337.575 102.309Z" fill="black"/>
<path d="M341.171 129.422C343.787 129.534 346.397 129.102 348.838 128.155C351.279 127.207 353.498 125.764 355.354 123.917C355.949 123.33 355.035 122.415 354.44 123.002C352.71 124.731 350.639 126.08 348.359 126.963C346.078 127.845 343.639 128.242 341.197 128.128C340.334 128.128 340.334 129.388 341.197 129.422H341.171Z" fill="black"/>
<path d="M329.617 97.1398C329.92 96.7049 330.325 96.3511 330.797 96.1096C331.268 95.8681 331.792 95.7462 332.322 95.7548C332.851 95.7633 333.371 95.9019 333.834 96.1585C334.298 96.4151 334.691 96.7817 334.98 97.2261C335.446 97.9078 336.567 97.2261 336.101 96.5703C335.713 95.9553 335.182 95.4431 334.554 95.0772C333.925 94.7114 333.218 94.5027 332.492 94.4688C331.766 94.4349 331.042 94.5769 330.383 94.8826C329.723 95.1884 329.147 95.6489 328.703 96.2251C328.203 96.8723 329.109 97.7957 329.617 97.1398V97.1398Z" fill="black"/>
<path d="M345.87 96.4149C346.957 95.3665 348.386 94.7478 349.894 94.6732C351.401 94.5987 352.885 95.0733 354.07 96.0093C354.716 96.527 355.639 95.6123 354.992 95.0946C353.559 93.9227 351.746 93.3168 349.897 93.3915C348.048 93.4663 346.29 94.2164 344.956 95.5001C344.361 96.0783 345.275 96.993 345.87 96.4149Z" fill="black"/>
<path d="M370.34 102.274C372.125 100.617 374.211 99.3748 376.703 99.6854C380.316 100.143 381.169 103.327 381.135 106.33C381.074 111.68 377.867 114.554 372.694 114.908C371.831 114.959 371.831 116.254 372.694 116.202C379.634 115.727 383.497 110.852 382.273 103.888C381.048 96.924 373.651 97.39 369.426 101.299C368.814 101.869 369.736 102.783 370.34 102.222V102.274Z" fill="black"/>
<path d="M333.48 110.999C334.104 110.999 334.609 109.538 334.609 107.737C334.609 105.935 334.104 104.475 333.48 104.475C332.856 104.475 332.35 105.935 332.35 107.737C332.35 109.538 332.856 110.999 333.48 110.999Z" fill="black"/>
<path d="M349.215 110.507C349.839 110.507 350.345 109.046 350.345 107.245C350.345 105.443 349.839 103.983 349.215 103.983C348.591 103.983 348.086 105.443 348.086 107.245C348.086 109.046 348.591 110.507 349.215 110.507Z" fill="black"/>
<path d="M351.724 114.027H351.604C351.432 114.027 351.268 114.096 351.146 114.217C351.025 114.338 350.957 114.503 350.957 114.675C350.957 114.846 351.025 115.011 351.146 115.132C351.268 115.254 351.432 115.322 351.604 115.322H351.724C351.896 115.322 352.06 115.254 352.182 115.132C352.303 115.011 352.371 114.846 352.371 114.675C352.371 114.503 352.303 114.338 352.182 114.217C352.06 114.096 351.896 114.027 351.724 114.027Z" fill="black"/>
<path d="M357.251 112.129C357.423 112.129 357.587 112.061 357.708 111.939C357.83 111.818 357.898 111.653 357.898 111.482C357.898 111.31 357.83 111.146 357.708 111.024C357.587 110.903 357.423 110.835 357.251 110.835C357.08 110.835 356.915 110.903 356.794 111.024C356.673 111.146 356.604 111.31 356.604 111.482C356.604 111.653 356.673 111.818 356.794 111.939C356.915 112.061 357.08 112.129 357.251 112.129V112.129Z" fill="black"/>
<path d="M357.372 117.393C357.543 117.393 357.708 117.325 357.829 117.203C357.95 117.082 358.018 116.917 358.018 116.746C358.018 116.574 357.95 116.409 357.829 116.288C357.708 116.167 357.543 116.098 357.372 116.098C357.2 116.098 357.036 116.167 356.914 116.288C356.793 116.409 356.725 116.574 356.725 116.746C356.725 116.917 356.793 117.082 356.914 117.203C357.036 117.325 357.2 117.393 357.372 117.393V117.393Z" fill="black"/>
<path d="M357.751 138.768C361.259 141.528 365.175 143.725 369.357 145.283C370.133 145.576 370.469 144.325 369.693 144.032C365.718 142.555 361.998 140.467 358.665 137.844C358.018 137.344 357.096 138.25 357.751 138.768V138.768Z" fill="black"/>
</g>
<defs>
<clipPath id="clip0_1_4">
<rect width="500" height="464" fill="white" transform="translate(0 18)"/>
</clipPath>
</defs>
</svg>
